<mxfile host="65bd71144e">
    <diagram id="eOa-YGgDBefpnk42g5V-" name="第 1 页">
        <mxGraphModel dx="898" dy="543" grid="1" gridSize="10" guides="1" tooltips="1" connect="1" arrows="1" fold="1" page="1" pageScale="1" pageWidth="827" pageHeight="1169" math="0" shadow="0">
            <root>
                <mxCell id="0"/>
                <mxCell id="1" parent="0"/>
                <mxCell id="4" value="" style="shape=stencil(rVxJjhw3EHzNXAnuy1m2/yFAI2tgWSNI8vZ7kx6wuiuSHVkEfBu1IqrJZO7M6qfw7vun91+fn7z9/uPb62/Pf718+PHpKfz05P3Ll0/P315+9L+ews9P4d3H12/Pv357/ePLh7d/f30/kOOv31//HE/4+41nTXKD5O0/84Nc/vvglzf455cvHF7iFrzVDbgzKWzB687a/fzgGjyYsAOPxrcNeDLRbsDzntyr8Ttrb6bRp8d6lnsXPD2nmM/4YApVA8QnU/l6AF+N3cGPT3bW3zVHkQ/gk0l5B19N2JF/cHvKE6J2XvD8avLOfqM3hT8/nvHZNGq40Z9txRnP9cee8clkz/DhvP7UTKXyDOf15KA4TV/O+GJcovh0whdrHNUfH874Ln+6X3/WhxJNo3jXzvjufej63Xm/pSq+EPHNpB187VGIujfEO5Op/riz/GuPFPR83Vn+NZjI1wPeOU4JP8Dbinjuf+xZn2vXf6o/9myPNSvrt2f9r2VK+BHeIr5R/UF8NYXaI+Lb9BjX8K2fyCa+8PMCvFPiC+K9sVz+As/1E/FBiY8SH7n+CHzdkmdU/KHExy35x83zSsZuyTOZsLX+bo9b+pBM29KHrPkTgd+TZ/f/W/Lp/mHHfjte8T8Cn7fWX5R8A/F1RuTL+LSl/1XJhxHf5ieX8Tx/kPiwpZ/d327Js8f3zf3y/Erief6zwPPz9QLP1x8RX3k+0AR+p+4deHK+zlj5fGIvfrFflh/2wlg8n+Un3VsK+TN7LFMaR31nLTUAZ6c8LjPi9FCXGQWrEo0xeiV7+/Bx5gGXGWWhS0y2oRcD8jDI4QU/c7er2tGLX/ENTP16tWmDIBD9jnam8xcNLobp3y56gJhMFd/AQk6sWPMpPiyJInoQmBF5rKIHgWw6HQ2pi264V81NbDoRKaUy09yrhCPuXSRkUQppBDcziXsC8a3ZT0W4JxCLy8JzKNEwp4WUIjnpnGd1e08gFpeP9OY+oBNtzQ07CEoGUOzCpllLpriFibKcqhwttnsC2XRZnQPLgktauEpKyMYLE6WEMjvGVwl1CvHqphu2NhSxVrvwrezgRmtFJofEHqrD7puiS9XPYus6oYj8hBLC4hwUgnT3lBAXbkYhVKF8lHCUmNcJZU+seZEJKIS0t6Q8y9irhLKIogohbzmy0Yna06W6sDiFEKQukWymExZiJV5jdMfEHlh86IQqvoFFoE5oMmSRGDcIMtdgXqMtvDeL050gtZVlAp0gDUghJBGBFIK0OEZo3RlvLakTpC4phLK1h+ZW58AJcW9JDmsz5aSbx+sKRZdu3dCL2toJC/Um9tDCIpVmFteOC6KLTqDFVVBkmz5aohdTh06Qm2ZdoraKQI4UHG0VgSw76Swyskpr0U5IgsAqxZZFZlzpVV8rolKstFIcrcgsCOwcikh0Ky0tWxX2UOn1Tv9vLC1VAmqrSkCbVggNGxs6wfldQhUEpkvdXMQ5UEfWRFZZaZxuMgJVbkBNZJWFVuw3P3fXqWc3B8OTZiRYvukMUup+hJ8DNL2GL2T2cLRuDoKntzGDAJu2s1B7RACL6+kKdZUNGyE9k2Wu8q5LdzAC92TyK/gd9SCcT67XguySUe668FvbW1vvIETaSry19Q6C17QPTq5YTZkgcc1t3r1fVKZcNCmV8x5yoneHTSR9Oc7M9KJBZM/9fcPWSXaauubzwaVGp8WkF0h1jrhc9DMpz2zioidLaWbXD33lWUqJ3xHfsp2DwIeQRoA420NyPCVrmK2nY9DiUVSEZCNWeq8jw2gstKXbRP808ptcGdljoletTRSjMXLVqHgtEgMd/rndrR4ErxFgvCU6OpnZgya4mWjpfN3tOnkSgpLeF7SHUDUCFBCh8IqjYP4TMs9ORKYbEnczGZVPmRIcQwBACNx7Z3RkncDmAgYBBhf9bAg9rAdg045OrgzC2c0EPko2CDBE3Ljny1iX+SMzfUgQ06CRnzQSyjyZ6wTLVQMJmbtKSUg8cZWEyMssSQg811gRLDNRSfDz8ukh4RxQxsU711ZwlbdJg4cEuKSumsVBv8j1apNbHIzCusyjaJ6e9CAkTVtheHZcvfODg2kBx6dbFwQlsEuCeg5AqDy/ynitU3jykzEkZjrfN/CQLNH5u4HHlw/8Vl8mas+HHnmkb1oMPKQAPAPIOHCr5IYLPJt/lPigWY3AK0Yj8Io+CDzNXxZ4xb8D3tP3LVZ49n7DwOObN557UhhY8lrfEDJCR8c/Bh6cFm8NZRyIcrwBnbH6dzwbTFiaKw5LNFaVBDhh9cXfnxjjsihPdqk8OjoN8Uw+DpsdbtZiS3ztBS3KkxVeNWMBbOm8eQ04VWJpF7m0BZ7Iv0RsKlia3BSLnUVL599zwiKNv8SXHcYvy0eNCsYvBR+w0cnXE8X5Knhhvwre460wxwfRrVDwouxQ8AFvFhW8xaYrx3sx/6PgEyai/Hx9WMif6P8wD9QHVg30rLai/Fl86TlqQ/1kN4o9RQ0Cz4dDLcqH3Se6I3ze4Ym9O4cNChVvUZ4svvR0VtgjvahA9295OMLOm+UDETjNZmnwEu0hywfNpKrRMbMp6Ds4kWSRgmfwHocQzsa/RNpvaYM+Ybvd0iiasMlrad2V8DrM0uo34lQw741GzBgszfAijhvyKego4yeHO7F2Ag/S23C4cGYcnvGYODwKQVI4VN8a3AklYNPnCyWg8LL39IRRnMO3lMDLnI6O/0uXzeFbp+qwn6zBw45kHI5OceMTr49w07Y4+sUdh52l9TW3ZGfn4ZrTszKU8TdVM8qdv0iXcKssHFipwBwece0KHCXD4WHv6QFt9X+FK79C0v+4/YLJx5fPn99+AOX+//EXT/pHb7+WEn7+Fw==);fillColor=#008a00;fontColor=#ffffff;strokeColor=#005700;" vertex="1" parent="1">
                    <mxGeometry x="60" y="50" width="594" height="449" as="geometry"/>
                </mxCell>
                <mxCell id="7" value="" style="rounded=0;whiteSpace=wrap;html=1;fillColor=#a20025;fontColor=#ffffff;strokeColor=#6F0000;" vertex="1" parent="1">
                    <mxGeometry x="60" y="50" width="90" height="330" as="geometry"/>
                </mxCell>
                <mxCell id="8" value="" style="ellipse;whiteSpace=wrap;html=1;aspect=fixed;fillColor=#0050ef;fontColor=#ffffff;strokeColor=#001DBC;" vertex="1" parent="1">
                    <mxGeometry x="300" y="310" width="80" height="80" as="geometry"/>
                </mxCell>
                <mxCell id="9" value="" style="rounded=0;whiteSpace=wrap;html=1;fillColor=#a20025;fontColor=#ffffff;strokeColor=#6F0000;" vertex="1" parent="1">
                    <mxGeometry x="209" y="50" width="410" height="240" as="geometry"/>
                </mxCell>
                <mxCell id="11" value="" style="rounded=0;whiteSpace=wrap;html=1;fillColor=#a20025;fontColor=#ffffff;strokeColor=#6F0000;" vertex="1" parent="1">
                    <mxGeometry x="60" y="410" width="590" height="89" as="geometry"/>
                </mxCell>
            </root>
        </mxGraphModel>
    </diagram>
</mxfile>